<svg width="180" height="178" viewBox="0 0 180 178" fill="none" xmlns="http://www.w3.org/2000/svg">
<rect width="180" height="178" rx="89" fill="white"/>
<path d="M117 43C124.18 43 130 48.8203 130 56V96.8651C130 99.3319 131.87 101.341 134.053 102.491C138.184 104.669 141 109.006 141 114V141C141 144.314 138.314 147 135 147H120C116.686 147 114 144.314 114 141V129C114 126.239 111.761 124 109 124H71C68.2386 124 66 126.239 66 129V141C66 144.314 63.3137 147 60 147H45C41.6863 147 39 144.314 39 141V114C39 108.771 42.0874 104.263 46.5387 102.2C48.9106 101.1 51 99.0183 51 96.404V56C51 48.8203 56.8203 43 64 43H117Z" fill="url(#paint0_linear_935_44791)"/>
<rect x="73" y="89" width="24" height="51" rx="12" transform="rotate(-90 73 89)" fill="white"/>
<defs>
<linearGradient id="paint0_linear_935_44791" x1="163" y1="206" x2="46.5" y2="50" gradientUnits="userSpaceOnUse">
<stop offset="0.357357" stop-color="#6180AF"/>
<stop offset="1" stop-color="#293549"/>
</linearGradient>
</defs>
</svg>
