<svg width="188" height="188" viewBox="0 0 188 188" fill="none" xmlns="http://www.w3.org/2000/svg">
  <rect width="188" height="188" rx="94" fill="#5CA0FF" />

  <g transform="translate(0 1)">
    <path
      d="M51.0909 158V41.6364H90.4091C99.5379 41.6364 107 43.2841 112.795 46.5795C118.629 49.8371 122.947 54.25 125.75 59.8182C128.553 65.3864 129.955 71.5985 129.955 78.4545C129.955 85.3106 128.553 91.5417 125.75 97.1477C122.985 102.754 118.705 107.223 112.909 110.557C107.114 113.852 99.6894 115.5 90.6364 115.5H62.4545V103H90.1818C96.4318 103 101.451 101.92 105.239 99.7614C109.027 97.6023 111.773 94.6856 113.477 91.0114C115.22 87.2992 116.091 83.1136 116.091 78.4545C116.091 73.7955 115.22 69.6288 113.477 65.9545C111.773 62.2803 109.008 59.4015 105.182 57.3182C101.356 55.197 96.2803 54.1364 89.9545 54.1364H65.1818V158H51.0909Z"
      fill="white"
    />

    <path
      d="M95 5C95 2.23858 97.2406 -0.014027 100.002 0.134271C122.846 1.36285 144.506 10.9799 160.765 27.2391C178.206 44.68 188.004 68.3349 188.004 93C188.004 117.665 178.206 141.32 160.765 158.761C144.506 175.02 122.846 184.637 100.002 185.866C97.2406 186.014 95 183.761 95 181V93V5Z"
      fill="#DFECFF"
      fill-opacity="0.44"
      stroke="white"
      stroke-opacity="0.52"
      stroke-width="2"
    />
  </g>
</svg>
